<mxfile host="app.diagrams.net" modified="2023-09-16T20:41:55.810Z" agent="Mozilla/5.0 (Windows NT 10.0; Win64; x64) AppleWebKit/537.36 (KHTML, like Gecko) Chrome/117.0.0.0 Safari/537.36" version="21.7.5" etag="4O6u92BbM8JzXbT4F-vH" type="github">
  <diagram name="Страница — 1" id="HLTt2j_cJfCqIwEylG0D">
    <mxGraphModel>
      <root>
        <mxCell id="0" />
        <mxCell id="1" parent="0" />
      </root>
    </mxGraphModel>
  </diagram>
</mxfile>
